<mxfile host="app.diagrams.net" modified="2023-03-29T00:59:55.228Z" agent="5.0 (Windows NT 10.0; Win64; x64) AppleWebKit/537.36 (KHTML, like Gecko) Chrome/110.0.0.0 Safari/537.36" etag="PGdydWUn2Ps_bhypcSKs" version="20.3.0" type="github">
  <diagram id="6a731a19-8d31-9384-78a2-239565b7b9f0" name="Page-1">
    <mxGraphModel dx="1102" dy="621" grid="1" gridSize="10" guides="1" tooltips="1" connect="1" arrows="1" fold="1" page="1" pageScale="1" pageWidth="1169" pageHeight="827" background="none" math="0" shadow="0">
      <root>
        <mxCell id="0" />
        <mxCell id="1" parent="0" />
        <mxCell id="MuRADO7Vl183LadUwnaL-153" style="edgeStyle=orthogonalEdgeStyle;rounded=0;orthogonalLoop=1;jettySize=auto;html=1;entryX=0;entryY=0.5;entryDx=0;entryDy=0;startArrow=none;fontSize=13;" edge="1" parent="1" source="MuRADO7Vl183LadUwnaL-155" target="MuRADO7Vl183LadUwnaL-150">
          <mxGeometry relative="1" as="geometry" />
        </mxCell>
        <mxCell id="MuRADO7Vl183LadUwnaL-154" style="edgeStyle=orthogonalEdgeStyle;rounded=0;orthogonalLoop=1;jettySize=auto;html=1;entryX=0;entryY=0.5;entryDx=0;entryDy=0;fontSize=13;" edge="1" parent="1" source="MuRADO7Vl183LadUwnaL-143" target="MuRADO7Vl183LadUwnaL-148">
          <mxGeometry relative="1" as="geometry">
            <Array as="points">
              <mxPoint x="310" y="455" />
            </Array>
          </mxGeometry>
        </mxCell>
        <mxCell id="MuRADO7Vl183LadUwnaL-161" value="存量用户促活" style="edgeLabel;html=1;align=center;verticalAlign=middle;resizable=0;points=[];fontSize=13;" vertex="1" connectable="0" parent="MuRADO7Vl183LadUwnaL-154">
          <mxGeometry x="0.2983" y="-3" relative="1" as="geometry">
            <mxPoint x="-19" y="-3" as="offset" />
          </mxGeometry>
        </mxCell>
        <mxCell id="MuRADO7Vl183LadUwnaL-170" style="edgeStyle=orthogonalEdgeStyle;rounded=0;orthogonalLoop=1;jettySize=auto;html=1;entryX=0.5;entryY=1;entryDx=0;entryDy=0;fontSize=13;" edge="1" parent="1" source="MuRADO7Vl183LadUwnaL-143" target="MuRADO7Vl183LadUwnaL-147">
          <mxGeometry relative="1" as="geometry">
            <Array as="points">
              <mxPoint x="310" y="535" />
              <mxPoint x="780" y="535" />
            </Array>
          </mxGeometry>
        </mxCell>
        <mxCell id="MuRADO7Vl183LadUwnaL-171" value="委托运营" style="edgeLabel;html=1;align=center;verticalAlign=middle;resizable=0;points=[];fontSize=13;" vertex="1" connectable="0" parent="MuRADO7Vl183LadUwnaL-170">
          <mxGeometry x="-0.1152" y="2" relative="1" as="geometry">
            <mxPoint as="offset" />
          </mxGeometry>
        </mxCell>
        <mxCell id="MuRADO7Vl183LadUwnaL-183" style="edgeStyle=orthogonalEdgeStyle;rounded=0;orthogonalLoop=1;jettySize=auto;html=1;entryX=0;entryY=0.5;entryDx=0;entryDy=0;fontSize=13;" edge="1" parent="1" source="MuRADO7Vl183LadUwnaL-143" target="MuRADO7Vl183LadUwnaL-144">
          <mxGeometry relative="1" as="geometry">
            <Array as="points">
              <mxPoint x="305" y="160" />
            </Array>
          </mxGeometry>
        </mxCell>
        <mxCell id="MuRADO7Vl183LadUwnaL-187" value="委托运营" style="edgeLabel;html=1;align=center;verticalAlign=middle;resizable=0;points=[];fontSize=13;" vertex="1" connectable="0" parent="MuRADO7Vl183LadUwnaL-183">
          <mxGeometry x="0.3922" y="1" relative="1" as="geometry">
            <mxPoint as="offset" />
          </mxGeometry>
        </mxCell>
        <mxCell id="MuRADO7Vl183LadUwnaL-143" value="客户（甲方）" style="rounded=1;whiteSpace=wrap;html=1;fillColor=#d5e8d4;strokeColor=#82b366;fontSize=13;" vertex="1" parent="1">
          <mxGeometry x="245" y="330" width="120" height="60" as="geometry" />
        </mxCell>
        <mxCell id="MuRADO7Vl183LadUwnaL-181" style="edgeStyle=orthogonalEdgeStyle;rounded=0;orthogonalLoop=1;jettySize=auto;html=1;fontSize=13;" edge="1" parent="1" source="MuRADO7Vl183LadUwnaL-144" target="MuRADO7Vl183LadUwnaL-147">
          <mxGeometry relative="1" as="geometry" />
        </mxCell>
        <mxCell id="MuRADO7Vl183LadUwnaL-182" value="委托运营" style="edgeLabel;html=1;align=center;verticalAlign=middle;resizable=0;points=[];fontSize=13;" vertex="1" connectable="0" parent="MuRADO7Vl183LadUwnaL-181">
          <mxGeometry x="0.3747" relative="1" as="geometry">
            <mxPoint as="offset" />
          </mxGeometry>
        </mxCell>
        <mxCell id="MuRADO7Vl183LadUwnaL-144" value="渠道" style="rounded=1;whiteSpace=wrap;html=1;fillColor=#e1d5e7;strokeColor=#9673a6;fontSize=13;" vertex="1" parent="1">
          <mxGeometry x="520" y="130" width="120" height="60" as="geometry" />
        </mxCell>
        <mxCell id="MuRADO7Vl183LadUwnaL-164" value="" style="edgeStyle=orthogonalEdgeStyle;rounded=0;orthogonalLoop=1;jettySize=auto;html=1;fontSize=13;" edge="1" parent="1" source="MuRADO7Vl183LadUwnaL-146" target="MuRADO7Vl183LadUwnaL-147">
          <mxGeometry relative="1" as="geometry" />
        </mxCell>
        <mxCell id="MuRADO7Vl183LadUwnaL-169" value="提供数据能力" style="edgeLabel;html=1;align=center;verticalAlign=middle;resizable=0;points=[];fontSize=13;" vertex="1" connectable="0" parent="MuRADO7Vl183LadUwnaL-164">
          <mxGeometry x="-0.2473" y="1" relative="1" as="geometry">
            <mxPoint x="-15" y="14" as="offset" />
          </mxGeometry>
        </mxCell>
        <mxCell id="MuRADO7Vl183LadUwnaL-146" value="数据源B" style="rounded=1;whiteSpace=wrap;html=1;fillColor=#ffe6cc;strokeColor=#d79b00;fontSize=13;" vertex="1" parent="1">
          <mxGeometry x="960" y="330" width="120" height="60" as="geometry" />
        </mxCell>
        <mxCell id="MuRADO7Vl183LadUwnaL-173" style="edgeStyle=orthogonalEdgeStyle;rounded=0;orthogonalLoop=1;jettySize=auto;html=1;entryX=1;entryY=0.5;entryDx=0;entryDy=0;fontSize=13;" edge="1" parent="1" source="MuRADO7Vl183LadUwnaL-147" target="MuRADO7Vl183LadUwnaL-150">
          <mxGeometry relative="1" as="geometry" />
        </mxCell>
        <mxCell id="MuRADO7Vl183LadUwnaL-174" style="edgeStyle=orthogonalEdgeStyle;rounded=0;orthogonalLoop=1;jettySize=auto;html=1;entryX=1;entryY=0.5;entryDx=0;entryDy=0;fontSize=13;" edge="1" parent="1" source="MuRADO7Vl183LadUwnaL-147" target="MuRADO7Vl183LadUwnaL-148">
          <mxGeometry relative="1" as="geometry" />
        </mxCell>
        <mxCell id="MuRADO7Vl183LadUwnaL-147" value="科技公司（大箴）" style="rounded=1;whiteSpace=wrap;html=1;fillColor=#dae8fc;strokeColor=#6c8ebf;fontSize=13;" vertex="1" parent="1">
          <mxGeometry x="720" y="330" width="120" height="60" as="geometry" />
        </mxCell>
        <mxCell id="MuRADO7Vl183LadUwnaL-192" style="edgeStyle=orthogonalEdgeStyle;rounded=0;orthogonalLoop=1;jettySize=auto;html=1;entryX=1;entryY=0.5;entryDx=0;entryDy=0;fontSize=13;" edge="1" parent="1" source="MuRADO7Vl183LadUwnaL-148" target="MuRADO7Vl183LadUwnaL-188">
          <mxGeometry relative="1" as="geometry" />
        </mxCell>
        <mxCell id="MuRADO7Vl183LadUwnaL-148" value="短信通道&lt;br style=&quot;font-size: 13px;&quot;&gt;外呼平台" style="rounded=1;whiteSpace=wrap;html=1;fillColor=#f8cecc;strokeColor=#b85450;fontSize=13;" vertex="1" parent="1">
          <mxGeometry x="520" y="425" width="120" height="60" as="geometry" />
        </mxCell>
        <mxCell id="MuRADO7Vl183LadUwnaL-191" style="edgeStyle=orthogonalEdgeStyle;rounded=0;orthogonalLoop=1;jettySize=auto;html=1;entryX=1;entryY=0.5;entryDx=0;entryDy=0;fontSize=13;" edge="1" parent="1" source="MuRADO7Vl183LadUwnaL-150" target="MuRADO7Vl183LadUwnaL-188">
          <mxGeometry relative="1" as="geometry" />
        </mxCell>
        <mxCell id="MuRADO7Vl183LadUwnaL-150" value="媒体平台" style="rounded=1;whiteSpace=wrap;html=1;fillColor=#f8cecc;strokeColor=#b85450;fontSize=13;" vertex="1" parent="1">
          <mxGeometry x="520" y="230" width="120" height="60" as="geometry" />
        </mxCell>
        <mxCell id="MuRADO7Vl183LadUwnaL-155" value="甲方自己通过公域流量拉新" style="text;html=1;align=center;verticalAlign=middle;resizable=0;points=[];autosize=1;strokeColor=none;fillColor=none;fontSize=13;" vertex="1" parent="1">
          <mxGeometry x="325" y="245" width="180" height="30" as="geometry" />
        </mxCell>
        <mxCell id="MuRADO7Vl183LadUwnaL-156" value="" style="edgeStyle=orthogonalEdgeStyle;rounded=0;orthogonalLoop=1;jettySize=auto;html=1;entryX=0;entryY=0.5;entryDx=0;entryDy=0;endArrow=none;fontSize=13;" edge="1" parent="1" source="MuRADO7Vl183LadUwnaL-143" target="MuRADO7Vl183LadUwnaL-155">
          <mxGeometry relative="1" as="geometry">
            <mxPoint x="370" y="405" as="sourcePoint" />
            <mxPoint x="520" y="355" as="targetPoint" />
          </mxGeometry>
        </mxCell>
        <mxCell id="MuRADO7Vl183LadUwnaL-176" value="触达" style="text;html=1;align=center;verticalAlign=middle;resizable=0;points=[];autosize=1;strokeColor=none;fillColor=none;fontSize=13;" vertex="1" parent="1">
          <mxGeometry x="640" y="460" width="50" height="30" as="geometry" />
        </mxCell>
        <mxCell id="MuRADO7Vl183LadUwnaL-179" style="edgeStyle=orthogonalEdgeStyle;rounded=0;orthogonalLoop=1;jettySize=auto;html=1;entryX=1;entryY=0.5;entryDx=0;entryDy=0;fontSize=13;" edge="1" parent="1" source="MuRADO7Vl183LadUwnaL-177" target="MuRADO7Vl183LadUwnaL-147">
          <mxGeometry relative="1" as="geometry" />
        </mxCell>
        <mxCell id="MuRADO7Vl183LadUwnaL-177" value="数据源A" style="rounded=1;whiteSpace=wrap;html=1;fillColor=#ffe6cc;strokeColor=#d79b00;fontSize=13;" vertex="1" parent="1">
          <mxGeometry x="960" y="220" width="120" height="60" as="geometry" />
        </mxCell>
        <mxCell id="MuRADO7Vl183LadUwnaL-180" style="edgeStyle=orthogonalEdgeStyle;rounded=0;orthogonalLoop=1;jettySize=auto;html=1;entryX=1;entryY=0.5;entryDx=0;entryDy=0;fontSize=13;" edge="1" parent="1" source="MuRADO7Vl183LadUwnaL-178" target="MuRADO7Vl183LadUwnaL-147">
          <mxGeometry relative="1" as="geometry" />
        </mxCell>
        <mxCell id="MuRADO7Vl183LadUwnaL-178" value="数据源C" style="rounded=1;whiteSpace=wrap;html=1;fillColor=#ffe6cc;strokeColor=#d79b00;fontSize=13;" vertex="1" parent="1">
          <mxGeometry x="960" y="425" width="120" height="60" as="geometry" />
        </mxCell>
        <mxCell id="MuRADO7Vl183LadUwnaL-189" value="" style="edgeStyle=orthogonalEdgeStyle;rounded=0;orthogonalLoop=1;jettySize=auto;html=1;fontSize=13;" edge="1" parent="1" source="MuRADO7Vl183LadUwnaL-188" target="MuRADO7Vl183LadUwnaL-143">
          <mxGeometry relative="1" as="geometry" />
        </mxCell>
        <mxCell id="MuRADO7Vl183LadUwnaL-188" value="TMK" style="rounded=1;whiteSpace=wrap;html=1;fillColor=#f8cecc;strokeColor=#b85450;fontSize=13;" vertex="1" parent="1">
          <mxGeometry x="420" y="330" width="120" height="60" as="geometry" />
        </mxCell>
        <mxCell id="MuRADO7Vl183LadUwnaL-190" value="成交" style="text;html=1;align=center;verticalAlign=middle;resizable=0;points=[];autosize=1;strokeColor=none;fillColor=none;fontSize=13;" vertex="1" parent="1">
          <mxGeometry x="365" y="325" width="50" height="30" as="geometry" />
        </mxCell>
        <mxCell id="MuRADO7Vl183LadUwnaL-193" value="人工跟进" style="text;html=1;align=center;verticalAlign=middle;resizable=0;points=[];autosize=1;strokeColor=none;fillColor=none;fontSize=13;" vertex="1" parent="1">
          <mxGeometry x="580" y="345" width="80" height="30" as="geometry" />
        </mxCell>
        <mxCell id="MuRADO7Vl183LadUwnaL-196" value="投放" style="text;html=1;align=center;verticalAlign=middle;resizable=0;points=[];autosize=1;strokeColor=none;fillColor=none;fontSize=13;" vertex="1" parent="1">
          <mxGeometry x="640" y="230" width="50" height="30" as="geometry" />
        </mxCell>
      </root>
    </mxGraphModel>
  </diagram>
</mxfile>
